<svg width="56" height="56" viewBox="0 0 56 56" fill="none" xmlns="http://www.w3.org/2000/svg">
<g clip-path="url(#clip0_451_99)">
<mask id="path-1-inside-1_451_99" fill="white">
<path d="M42.5458 16.49C44.4905 14.5453 45.4628 13.573 45.2838 12.1936C45.1049 10.8143 44.0956 10.2266 42.077 9.05109C41.2289 8.55723 40.3468 8.11985 39.4361 7.74265C36.778 6.64163 33.9291 6.07494 31.052 6.07494C28.1748 6.07494 25.3259 6.64163 22.6678 7.74265C20.0097 8.84368 17.5945 10.4575 15.56 12.4919C13.5256 14.5263 11.9118 16.9416 10.8108 19.5997C9.70976 22.2578 9.14307 25.1067 9.14307 27.9838C9.14307 30.8609 9.70976 33.7099 10.8108 36.368C11.188 37.2786 11.6254 38.1608 12.1192 39.0088C13.2947 41.0274 13.8824 42.0367 15.2618 42.2157C16.6411 42.3947 17.6134 41.4224 19.5581 39.4777L31.052 27.9838L42.5458 16.49Z"/>
</mask>
<path d="M42.5458 16.49C44.4905 14.5453 45.4628 13.573 45.2838 12.1936C45.1049 10.8143 44.0956 10.2266 42.077 9.05109C41.2289 8.55723 40.3468 8.11985 39.4361 7.74265C36.778 6.64163 33.9291 6.07494 31.052 6.07494C28.1748 6.07494 25.3259 6.64163 22.6678 7.74265C20.0097 8.84368 17.5945 10.4575 15.56 12.4919C13.5256 14.5263 11.9118 16.9416 10.8108 19.5997C9.70976 22.2578 9.14307 25.1067 9.14307 27.9838C9.14307 30.8609 9.70976 33.7099 10.8108 36.368C11.188 37.2786 11.6254 38.1608 12.1192 39.0088C13.2947 41.0274 13.8824 42.0367 15.2618 42.2157C16.6411 42.3947 17.6134 41.4224 19.5581 39.4777L31.052 27.9838L42.5458 16.49Z" stroke="url(#paint0_linear_451_99)" stroke-width="4" mask="url(#path-1-inside-1_451_99)"/>
<mask id="path-2-inside-2_451_99" fill="white">
<path d="M19.49 16.5979C17.5454 14.6532 16.573 13.6809 15.1937 13.8598C13.8144 14.0388 13.2266 15.0481 12.0511 17.0667C11.5573 17.9148 11.1199 18.7969 10.7427 19.7075C9.64169 22.3657 9.075 25.2146 9.075 28.0917C9.075 30.9688 9.64169 33.8178 10.7427 36.4759C11.8437 39.134 13.4575 41.5492 15.492 43.5836C17.5264 45.6181 19.9416 47.2319 22.5997 48.3329C25.2578 49.4339 28.1068 50.0006 30.9839 50.0006C33.861 50.0006 36.7099 49.4339 39.3681 48.3329C40.2787 47.9557 41.1608 47.5183 42.0089 47.0245C44.0275 45.849 45.0368 45.2612 45.2158 43.8819C45.3948 42.5026 44.4224 41.5302 42.4777 39.5856L30.9839 28.0917L19.49 16.5979Z"/>
</mask>
<path d="M19.49 16.5979C17.5454 14.6532 16.573 13.6809 15.1937 13.8598C13.8144 14.0388 13.2266 15.0481 12.0511 17.0667C11.5573 17.9148 11.1199 18.7969 10.7427 19.7075C9.64169 22.3657 9.075 25.2146 9.075 28.0917C9.075 30.9688 9.64169 33.8178 10.7427 36.4759C11.8437 39.134 13.4575 41.5492 15.492 43.5836C17.5264 45.6181 19.9416 47.2319 22.5997 48.3329C25.2578 49.4339 28.1068 50.0006 30.9839 50.0006C33.861 50.0006 36.7099 49.4339 39.3681 48.3329C40.2787 47.9557 41.1608 47.5183 42.0089 47.0245C44.0275 45.849 45.0368 45.2612 45.2158 43.8819C45.3948 42.5026 44.4224 41.5302 42.4777 39.5856L30.9839 28.0917L19.49 16.5979Z" stroke="url(#paint1_linear_451_99)" stroke-width="4" mask="url(#path-2-inside-2_451_99)"/>
</g>
<defs>
<linearGradient id="paint0_linear_451_99" x1="27.1111" y1="-2.12686" x2="34.8368" y2="57.2252" gradientUnits="userSpaceOnUse">
<stop stop-color="#E741E7"/>
<stop offset="1" stop-color="#4100C8"/>
</linearGradient>
<linearGradient id="paint1_linear_451_99" x1="0.873199" y1="32.0326" x2="60.2252" y2="24.3069" gradientUnits="userSpaceOnUse">
<stop stop-color="#E741E7"/>
<stop offset="1" stop-color="#4100C8"/>
</linearGradient>
<clipPath id="clip0_451_99">
<rect width="56" height="56" fill="white"/>
</clipPath>
</defs>
</svg>
