<svg width="56" height="56" viewBox="0 0 56 56" fill="none" xmlns="http://www.w3.org/2000/svg">
<g clip-path="url(#clip0_451_19)">
<path d="M13 33.1406V20.5C13 19.5289 13.0021 18.9012 13.0643 18.4387C13.1226 18.005 13.2168 17.869 13.2929 17.7929L12.5879 17.0879L13.2929 17.7929C13.369 17.7168 13.505 17.6226 13.9387 17.5643C14.4012 17.5021 15.0289 17.5 16 17.5L39.187 17.5C41.4862 17.5 43.102 17.5023 44.2112 17.654C45.3849 17.8146 45.5051 18.0822 45.5314 18.1531C45.5576 18.2239 45.6404 18.5053 44.8538 19.3911C44.1104 20.2281 42.885 21.2815 41.1393 22.7778L17.9524 42.6523C16.5018 43.8957 15.4984 44.7523 14.7164 45.2479C13.9175 45.7542 13.6732 45.6734 13.5821 45.6315C13.4911 45.5896 13.2707 45.4567 13.1352 44.5207C13.0026 43.6044 13 42.2851 13 40.3746V33.1406Z" stroke="url(#paint0_linear_451_19)" stroke-width="2"/>
<g filter="url(#filter0_bd_451_19)">
<path d="M13 19.2857V11C13 10.0289 13.0021 9.40121 13.0643 8.9387C13.1226 8.50497 13.2168 8.36902 13.2929 8.29289L12.5879 7.58795L13.2929 8.29289C13.369 8.21677 13.505 8.12262 13.9387 8.06431C14.4012 8.00212 15.0289 8 16 8L39.187 8C41.4862 8 43.102 8.00232 44.2112 8.15404C45.3849 8.31459 45.5051 8.58217 45.5314 8.65305C45.5576 8.72394 45.6404 9.00535 44.8538 9.8911C44.1104 10.7281 42.885 11.7815 41.1393 13.2778L31.4727 21.5635C30.8621 22.0868 30.7362 22.1759 30.6071 22.2236C30.478 22.2713 30.3244 22.2857 29.5203 22.2857H16C15.0289 22.2857 14.4012 22.2836 13.9387 22.2214C13.505 22.1631 13.369 22.0689 13.2929 21.9928L12.6329 22.6528L13.2929 21.9928C13.2168 21.9167 13.1226 21.7807 13.0643 21.347C13.0021 20.8845 13 20.2568 13 19.2857Z" stroke="url(#paint1_linear_451_19)" stroke-width="2" shape-rendering="crispEdges"/>
</g>
</g>
<defs>
<filter id="filter0_bd_451_19" x="0.285525" y="-4.26392" width="57.9783" height="39.7147" filterUnits="userSpaceOnUse" color-interpolation-filters="sRGB">
<feFlood flood-opacity="0" result="BackgroundImageFix"/>
<feGaussianBlur in="BackgroundImageFix" stdDeviation="0.901113"/>
<feComposite in2="SourceAlpha" operator="in" result="effect1_backgroundBlur_451_19"/>
<feColorMatrix in="SourceAlpha" type="matrix" values="0 0 0 0 0 0 0 0 0 0 0 0 0 0 0 0 0 0 127 0" result="hardAlpha"/>
<feOffset dy="0.450557"/>
<feGaussianBlur stdDeviation="5.85724"/>
<feComposite in2="hardAlpha" operator="out"/>
<feColorMatrix type="matrix" values="0 0 0 0 0.01525 0 0 0 0 0.0548824 0 0 0 0 0.15 0 0 0 0.6 0"/>
<feBlend mode="normal" in2="effect1_backgroundBlur_451_19" result="effect2_dropShadow_451_19"/>
<feBlend mode="normal" in="SourceGraphic" in2="effect2_dropShadow_451_19" result="shape"/>
</filter>
<linearGradient id="paint0_linear_451_19" x1="51.8812" y1="46.5411" x2="15.6189" y2="13.9803" gradientUnits="userSpaceOnUse">
<stop stop-color="#E741E7"/>
<stop offset="1" stop-color="#4100C8"/>
</linearGradient>
<linearGradient id="paint1_linear_451_19" x1="51.8812" y1="22.0205" x2="36.3786" y2="-5.81973" gradientUnits="userSpaceOnUse">
<stop stop-color="#E741E7"/>
<stop offset="1" stop-color="#4100C8"/>
</linearGradient>
<clipPath id="clip0_451_19">
<rect width="56" height="56" fill="white"/>
</clipPath>
</defs>
</svg>
