<svg width="56" height="56" viewBox="0 0 56 56" fill="none" xmlns="http://www.w3.org/2000/svg">
<path d="M14 41.9583C14 40.1571 14.7155 38.4296 15.9892 37.1559C17.2629 35.8822 18.9904 35.1667 20.7917 35.1667H27.5833V41.9583C27.5833 43.7596 26.8678 45.4871 25.5941 46.7608C24.3204 48.0345 22.5929 48.75 20.7917 48.75C18.9904 48.75 17.2629 48.0345 15.9892 46.7608C14.7155 45.4871 14 43.7596 14 41.9583Z" stroke="url(#paint0_linear_405_110)" stroke-width="2" stroke-linecap="round" stroke-linejoin="round"/>
<path d="M14 28.375C14 26.5737 14.7155 24.8462 15.9892 23.5726C17.2629 22.2989 18.9904 21.5833 20.7917 21.5833H27.5833V35.1667H20.7917C18.9904 35.1667 17.2629 34.4511 15.9892 33.1774C14.7155 31.9037 14 30.1763 14 28.375Z" stroke="url(#paint1_linear_405_110)" stroke-width="2" stroke-linecap="round" stroke-linejoin="round"/>
<path d="M14 14.7917C14 12.9904 14.7155 11.2629 15.9892 9.98923C17.2629 8.71555 18.9904 8 20.7917 8H27.5833V21.5833H20.7917C18.9904 21.5833 17.2629 20.8678 15.9892 19.5941C14.7155 18.3204 14 16.5929 14 14.7917Z" stroke="url(#paint2_linear_405_110)" stroke-width="2" stroke-linecap="round" stroke-linejoin="round"/>
<path d="M27.5833 8H34.3749C35.2668 8 36.15 8.17567 36.974 8.51698C37.798 8.8583 38.5467 9.35857 39.1774 9.98923C39.808 10.6199 40.3083 11.3686 40.6496 12.1926C40.9909 13.0166 41.1666 13.8998 41.1666 14.7917C41.1666 15.6836 40.9909 16.5667 40.6496 17.3907C40.3083 18.2147 39.808 18.9634 39.1774 19.5941C38.5467 20.2248 37.798 20.725 36.974 21.0663C36.15 21.4077 35.2668 21.5833 34.3749 21.5833H27.5833V8Z" stroke="url(#paint3_linear_405_110)" stroke-width="2" stroke-linecap="round" stroke-linejoin="round"/>
<path d="M27.5833 28.375C27.5833 27.4831 27.7589 26.5999 28.1002 25.7759C28.4415 24.9519 28.9418 24.2032 29.5725 23.5726C30.2031 22.9419 30.9519 22.4416 31.7759 22.1003C32.5999 21.759 33.483 21.5833 34.3749 21.5833C35.2668 21.5833 36.15 21.759 36.974 22.1003C37.798 22.4416 38.5467 22.9419 39.1774 23.5726C39.808 24.2032 40.3083 24.9519 40.6496 25.7759C40.9909 26.5999 41.1666 27.4831 41.1666 28.375C41.1666 29.2669 40.9909 30.15 40.6496 30.9741C40.3083 31.7981 39.808 32.5468 39.1774 33.1774C38.5467 33.8081 37.798 34.3084 36.974 34.6497C36.15 34.991 35.2668 35.1667 34.3749 35.1667C33.483 35.1667 32.5999 34.991 31.7759 34.6497C30.9519 34.3084 30.2031 33.8081 29.5725 33.1774C28.9418 32.5468 28.4415 31.7981 28.1002 30.9741C27.7589 30.15 27.5833 29.2669 27.5833 28.375V28.375Z" stroke="url(#paint4_linear_405_110)" stroke-width="2" stroke-linecap="round" stroke-linejoin="round"/>
<defs>
<linearGradient id="paint0_linear_405_110" x1="26.5281" y1="34.4942" x2="15.2116" y2="49.1977" gradientUnits="userSpaceOnUse">
<stop stop-color="#E741E7"/>
<stop offset="1" stop-color="#4100C8"/>
</linearGradient>
<linearGradient id="paint1_linear_405_110" x1="26.5281" y1="20.9109" x2="15.2116" y2="35.6143" gradientUnits="userSpaceOnUse">
<stop stop-color="#E741E7"/>
<stop offset="1" stop-color="#4100C8"/>
</linearGradient>
<linearGradient id="paint2_linear_405_110" x1="26.5281" y1="7.32756" x2="15.2116" y2="22.031" gradientUnits="userSpaceOnUse">
<stop stop-color="#E741E7"/>
<stop offset="1" stop-color="#4100C8"/>
</linearGradient>
<linearGradient id="paint3_linear_405_110" x1="40.1114" y1="7.32756" x2="28.7948" y2="22.031" gradientUnits="userSpaceOnUse">
<stop stop-color="#E741E7"/>
<stop offset="1" stop-color="#4100C8"/>
</linearGradient>
<linearGradient id="paint4_linear_405_110" x1="40.1114" y1="20.9109" x2="28.7948" y2="35.6143" gradientUnits="userSpaceOnUse">
<stop stop-color="#E741E7"/>
<stop offset="1" stop-color="#4100C8"/>
</linearGradient>
</defs>
</svg>
