<svg width="140" height="39" viewBox="0 0 140 39" fill="none" xmlns="http://www.w3.org/2000/svg">
<path d="M53.3053 9.5838C50.6403 9.5838 47.8484 11.7412 47.8484 14.66H49.3713C49.3713 12.7564 51.1479 11.1067 53.3053 11.1067L53.3053 9.5838Z" fill="#211835" stroke="#211835" stroke-width="0.507624" stroke-linecap="round"/>
<circle cx="16.6296" cy="17.7053" r="7.86817" stroke="#211835" stroke-width="1.52287"/>
<circle cx="35.4118" cy="17.7053" r="7.86817" stroke="#211835" stroke-width="1.52287"/>
<mask id="path-4-inside-1_456_11" fill="white">
<path d="M69.4331 23.8074C68.2262 25.0143 66.6886 25.8362 65.0146 26.1691C63.3406 26.5021 61.6055 26.3312 60.0286 25.6781C58.4518 25.0249 57.104 23.9188 56.1558 22.4997C55.2075 21.0806 54.7014 19.4121 54.7014 17.7053C54.7014 15.9986 55.2075 14.3301 56.1558 12.911C57.104 11.4919 58.4518 10.3858 60.0286 9.73263C61.6055 9.07948 63.3406 8.90858 65.0146 9.24156C66.6886 9.57453 68.2262 10.3964 69.4331 11.6033L68.2572 12.7792C67.2829 11.8048 66.0416 11.1413 64.6902 10.8725C63.3387 10.6037 61.938 10.7417 60.665 11.269C59.392 11.7963 58.3039 12.6892 57.5384 13.8349C56.7729 14.9805 56.3643 16.3275 56.3643 17.7053C56.3643 19.0832 56.7729 20.4302 57.5384 21.5758C58.3039 22.7215 59.392 23.6144 60.665 24.1417C61.938 24.669 63.3387 24.807 64.6902 24.5382C66.0416 24.2694 67.2829 23.6059 68.2572 22.6315L69.4331 23.8074Z"/>
</mask>
<path d="M69.4331 23.8074C68.2262 25.0143 66.6886 25.8362 65.0146 26.1691C63.3406 26.5021 61.6055 26.3312 60.0286 25.6781C58.4518 25.0249 57.104 23.9188 56.1558 22.4997C55.2075 21.0806 54.7014 19.4121 54.7014 17.7053C54.7014 15.9986 55.2075 14.3301 56.1558 12.911C57.104 11.4919 58.4518 10.3858 60.0286 9.73263C61.6055 9.07948 63.3406 8.90858 65.0146 9.24156C66.6886 9.57453 68.2262 10.3964 69.4331 11.6033L68.2572 12.7792C67.2829 11.8048 66.0416 11.1413 64.6902 10.8725C63.3387 10.6037 61.938 10.7417 60.665 11.269C59.392 11.7963 58.3039 12.6892 57.5384 13.8349C56.7729 14.9805 56.3643 16.3275 56.3643 17.7053C56.3643 19.0832 56.7729 20.4302 57.5384 21.5758C58.3039 22.7215 59.392 23.6144 60.665 24.1417C61.938 24.669 63.3387 24.807 64.6902 24.5382C66.0416 24.2694 67.2829 23.6059 68.2572 22.6315L69.4331 23.8074Z" stroke="#211835" stroke-width="3.04574" mask="url(#path-4-inside-1_456_11)"/>
<mask id="path-5-inside-2_456_11" fill="white">
<path d="M86.4384 23.8074C85.0191 25.2267 83.1494 26.1069 81.1511 26.2964C79.1528 26.4859 77.1509 25.9729 75.4901 24.8456C73.8292 23.7183 72.6133 22.0474 72.0516 20.1203C71.4899 18.1933 71.6175 16.1307 72.4125 14.2875C73.2075 12.4444 74.6201 10.9361 76.4072 10.0221C78.1943 9.10821 80.2442 8.84585 82.2039 9.28023C84.1636 9.71461 85.9105 10.8185 87.1441 12.402C88.3777 13.9855 89.0206 15.9495 88.9624 17.9559L87.3001 17.9076C87.3472 16.2878 86.8281 14.7023 85.8323 13.424C84.8364 12.1456 83.4261 11.2544 81.844 10.9037C80.2619 10.5531 78.6071 10.7649 77.1644 11.5027C75.7216 12.2405 74.5812 13.4582 73.9394 14.9461C73.2976 16.4341 73.1946 18.0992 73.6481 19.655C74.1015 21.2107 75.0832 22.5596 76.424 23.4697C77.7648 24.3797 79.3808 24.7939 80.9941 24.6409C82.6073 24.4879 84.1167 23.7774 85.2626 22.6315L86.4384 23.8074Z"/>
</mask>
<path d="M86.4384 23.8074C85.0191 25.2267 83.1494 26.1069 81.1511 26.2964C79.1528 26.4859 77.1509 25.9729 75.4901 24.8456C73.8292 23.7183 72.6133 22.0474 72.0516 20.1203C71.4899 18.1933 71.6175 16.1307 72.4125 14.2875C73.2075 12.4444 74.6201 10.9361 76.4072 10.0221C78.1943 9.10821 80.2442 8.84585 82.2039 9.28023C84.1636 9.71461 85.9105 10.8185 87.1441 12.402C88.3777 13.9855 89.0206 15.9495 88.9624 17.9559L87.3001 17.9076C87.3472 16.2878 86.8281 14.7023 85.8323 13.424C84.8364 12.1456 83.4261 11.2544 81.844 10.9037C80.2619 10.5531 78.6071 10.7649 77.1644 11.5027C75.7216 12.2405 74.5812 13.4582 73.9394 14.9461C73.2976 16.4341 73.1946 18.0992 73.6481 19.655C74.1015 21.2107 75.0832 22.5596 76.424 23.4697C77.7648 24.3797 79.3808 24.7939 80.9941 24.6409C82.6073 24.4879 84.1167 23.7774 85.2626 22.6315L86.4384 23.8074Z" stroke="#211835" stroke-width="3.04574" mask="url(#path-5-inside-2_456_11)"/>
<rect x="72.5952" y="16.8173" width="16.244" height="1.26906" fill="#211835" stroke="#211835" stroke-width="0.253812"/>
<mask id="path-7-inside-3_456_11" fill="white">
<path d="M111.312 23.8074C109.893 25.2267 108.023 26.1069 106.025 26.2964C104.026 26.4859 102.024 25.9729 100.364 24.8456C98.7028 23.7183 97.4868 22.0474 96.9251 20.1203C96.3634 18.1933 96.491 16.1307 97.286 14.2875C98.081 12.4444 99.4936 10.9361 101.281 10.0221C103.068 9.10821 105.118 8.84585 107.077 9.28023C109.037 9.71461 110.784 10.8185 112.018 12.402C113.251 13.9855 113.894 15.9495 113.836 17.9559L112.174 17.9076C112.221 16.2878 111.702 14.7023 110.706 13.424C109.71 12.1456 108.3 11.2544 106.718 10.9037C105.135 10.5531 103.481 10.7649 102.038 11.5027C100.595 12.2405 99.4547 13.4582 98.8129 14.9461C98.1711 16.4341 98.0681 18.0992 98.5216 19.655C98.9751 21.2107 99.9567 22.5596 101.297 23.4697C102.638 24.3797 104.254 24.7939 105.868 24.6409C107.481 24.4879 108.99 23.7774 110.136 22.6315L111.312 23.8074Z"/>
</mask>
<path d="M111.312 23.8074C109.893 25.2267 108.023 26.1069 106.025 26.2964C104.026 26.4859 102.024 25.9729 100.364 24.8456C98.7028 23.7183 97.4868 22.0474 96.9251 20.1203C96.3634 18.1933 96.491 16.1307 97.286 14.2875C98.081 12.4444 99.4936 10.9361 101.281 10.0221C103.068 9.10821 105.118 8.84585 107.077 9.28023C109.037 9.71461 110.784 10.8185 112.018 12.402C113.251 13.9855 113.894 15.9495 113.836 17.9559L112.174 17.9076C112.221 16.2878 111.702 14.7023 110.706 13.424C109.71 12.1456 108.3 11.2544 106.718 10.9037C105.135 10.5531 103.481 10.7649 102.038 11.5027C100.595 12.2405 99.4547 13.4582 98.8129 14.9461C98.1711 16.4341 98.0681 18.0992 98.5216 19.655C98.9751 21.2107 99.9567 22.5596 101.297 23.4697C102.638 24.3797 104.254 24.7939 105.868 24.6409C107.481 24.4879 108.99 23.7774 110.136 22.6315L111.312 23.8074Z" stroke="#211835" stroke-width="3.04574" mask="url(#path-7-inside-3_456_11)"/>
<rect x="97.4687" y="16.8173" width="16.244" height="1.26906" fill="#211835" stroke="#211835" stroke-width="0.253812"/>
<rect x="92.1386" y="4.12691" width="1.26906" height="22.0816" fill="#211835" stroke="#211835" stroke-width="0.253812"/>
<rect x="8.12691" y="17.8327" width="1.26906" height="13.1982" fill="#211835" stroke="#211835" stroke-width="0.253812"/>
<rect x="42.6455" y="17.0713" width="1.26906" height="8.6296" fill="#211835" stroke="#211835" stroke-width="0.253812"/>
<rect x="47.9753" y="14.7865" width="1.26906" height="10.9139" fill="#211835" stroke="#211835" stroke-width="0.253812"/>
<rect x="116.05" y="10.6602" width="1.26906" height="7.36055" transform="rotate(-45 116.05 10.6602)" fill="#DB0FDB" stroke="#211835" stroke-width="0.253812"/>
<rect x="-0.179472" width="1.26906" height="7.36055" transform="matrix(-0.707107 -0.707107 -0.707107 0.707107 131.669 10.5333)" fill="#DB0FDB" stroke="#211835" stroke-width="0.253812"/>
<rect x="125.694" y="20.559" width="1.26906" height="7.36055" transform="rotate(-45 125.694 20.559)" fill="#DB0FDB" stroke="#211835" stroke-width="0.253812"/>
<rect x="-0.179472" width="1.26906" height="7.36055" transform="matrix(-0.707107 -0.707107 -0.707107 0.707107 122.025 20.4321)" fill="#DB0FDB" stroke="#211835" stroke-width="0.253812"/>
</svg>
