<svg width="56" height="56" viewBox="0 0 56 56" fill="none" xmlns="http://www.w3.org/2000/svg">
<path d="M10 45V29C10 28.4477 10.4477 28 11 28H18.4623C19.0146 28 19.4623 28.4477 19.4623 29V37.0435C19.4623 37.5958 19.91 38.0435 20.4623 38.0435H35.5377C36.09 38.0435 36.5377 37.5958 36.5377 37.0435V29C36.5377 28.4477 36.9854 28 37.5377 28H45C45.5523 28 46 28.4477 46 29V45C46 45.5523 45.5523 46 45 46H11C10.4477 46 10 45.5523 10 45Z" stroke="url(#paint0_linear_490_9)" stroke-width="2"/>
<path d="M23.0435 22.229H11C10.4477 22.229 10 21.7812 10 21.229V11C10 10.4477 10.4477 10 11 10H45C45.5523 10 46 10.4477 46 11V21.229C46 21.7812 45.5523 22.229 45 22.229H32.9565C32.4042 22.229 31.9565 22.6767 31.9565 23.229V31C31.9565 31.5523 31.5088 32 30.9565 32H25.0435C24.4912 32 24.0435 31.5523 24.0435 31V23.229C24.0435 22.6767 23.5958 22.229 23.0435 22.229Z" stroke="url(#paint1_linear_490_9)" stroke-width="2"/>
<defs>
<linearGradient id="paint0_linear_490_9" x1="43.2033" y1="27.1089" x2="32.8038" y2="54.133" gradientUnits="userSpaceOnUse">
<stop stop-color="#E741E7"/>
<stop offset="1" stop-color="#4100C8"/>
</linearGradient>
<linearGradient id="paint1_linear_490_9" x1="43.2033" y1="8.91089" x2="28.5985" y2="39.9624" gradientUnits="userSpaceOnUse">
<stop stop-color="#E741E7"/>
<stop offset="1" stop-color="#4100C8"/>
</linearGradient>
</defs>
</svg>
