<svg width="56" height="56" viewBox="0 0 56 56" fill="none" xmlns="http://www.w3.org/2000/svg">
<path d="M36.3462 9.01786C42.08 11.1569 44.429 13.0504 45.9544 18.5603M13.5898 15.4464C11.3233 20.2178 10.9429 22.9903 13.5898 28.3036M41.9088 5.80357C45.7796 7.48896 47.5728 9.01786 49.1911 12.2321M7.11684 18.6607C5.68428 21.5246 5.57244 24.6368 7.1167 27.5M30.6662 38.0218L35.9337 49.1301C36.164 49.6158 36.737 49.8325 37.2311 49.6208L42.0832 47.5419C42.6053 47.3182 42.8364 46.7052 42.5921 46.1925L37.3554 35.2036C37.0391 34.54 37.523 33.7734 38.2581 33.7734H47.5647C48.4586 33.7734 48.9034 32.6902 48.2675 32.062L22.5746 6.68203C21.9429 6.05801 20.8718 6.5055 20.8718 7.39345V43.8609C20.8718 44.7645 21.9753 45.2047 22.5973 44.5492L29.0372 37.7619C29.5208 37.2523 30.3652 37.387 30.6662 38.0218Z" stroke="url(#paint0_linear_537_18)" stroke-width="2" stroke-linecap="round" stroke-linejoin="round"/>
<defs>
<linearGradient id="paint0_linear_537_18" x1="46.5818" y1="2.77228" x2="8.88418" y2="50.6641" gradientUnits="userSpaceOnUse">
<stop stop-color="#E741E7"/>
<stop offset="1" stop-color="#6926F6"/>
</linearGradient>
</defs>
</svg>
