<svg width="56" height="56" viewBox="0 0 56 56" fill="none" xmlns="http://www.w3.org/2000/svg">
<path d="M17 28H10" stroke="url(#paint0_linear_405_198)" stroke-width="2" stroke-linecap="round"/>
<path d="M46 28H39" stroke="url(#paint1_linear_405_198)" stroke-width="2" stroke-linecap="round"/>
<path d="M19 19L12 12" stroke="url(#paint2_linear_405_198)" stroke-width="2" stroke-linecap="round"/>
<path d="M37 19L44 12" stroke="url(#paint3_linear_405_198)" stroke-width="2" stroke-linecap="round"/>
<path d="M13 44L19 37" stroke="url(#paint4_linear_405_198)" stroke-width="2" stroke-linecap="round"/>
<path d="M37 37L43 44" stroke="url(#paint5_linear_405_198)" stroke-width="2" stroke-linecap="round"/>
<path d="M38 29.6667C38 35.7486 33.5161 40 28 40C22.4839 40 18 35.7486 18 29.6667C18 29.6112 18.0003 28.3891 18.001 27.167C18.0014 26.5559 18.0018 25.945 18.0023 25.4801L18.0032 24.9109C18.0034 24.7929 18.0037 24.7254 18.0038 24.7015C18.0038 24.6946 18.0039 24.6914 18.0038 24.6917C18.1542 18.6786 22.6482 14 28 14C33.3129 14 37.7796 18.6098 37.9922 24.5601C37.9922 24.56 37.9922 24.5615 37.9922 24.5645C37.9923 24.582 37.9929 24.6523 37.9935 24.7883C37.9941 24.9347 37.9947 25.136 37.9952 25.3743C37.9963 25.8508 37.9972 26.4733 37.9979 27.0961C37.9993 28.3419 38 29.5876 38 29.6667Z" stroke="url(#paint6_linear_405_198)" stroke-width="2"/>
<defs>
<linearGradient id="paint0_linear_405_198" x1="16.4562" y1="27.9505" x2="16.2689" y2="29.6536" gradientUnits="userSpaceOnUse">
<stop stop-color="#E741E7"/>
<stop offset="1" stop-color="#4100C8"/>
</linearGradient>
<linearGradient id="paint1_linear_405_198" x1="45.4562" y1="27.9505" x2="45.2689" y2="29.6536" gradientUnits="userSpaceOnUse">
<stop stop-color="#E741E7"/>
<stop offset="1" stop-color="#4100C8"/>
</linearGradient>
<linearGradient id="paint2_linear_405_198" x1="18.4562" y1="11.6535" x2="12.6244" y2="19.2307" gradientUnits="userSpaceOnUse">
<stop stop-color="#E741E7"/>
<stop offset="1" stop-color="#4100C8"/>
</linearGradient>
<linearGradient id="paint3_linear_405_198" x1="37.5438" y1="11.6535" x2="43.3756" y2="19.2307" gradientUnits="userSpaceOnUse">
<stop stop-color="#E741E7"/>
<stop offset="1" stop-color="#4100C8"/>
</linearGradient>
<linearGradient id="paint4_linear_405_198" x1="13.4661" y1="36.6535" x2="19.4642" y2="43.3334" gradientUnits="userSpaceOnUse">
<stop stop-color="#E741E7"/>
<stop offset="1" stop-color="#4100C8"/>
</linearGradient>
<linearGradient id="paint5_linear_405_198" x1="37.4661" y1="44.3465" x2="43.4642" y2="37.6666" gradientUnits="userSpaceOnUse">
<stop stop-color="#E741E7"/>
<stop offset="1" stop-color="#4100C8"/>
</linearGradient>
<linearGradient id="paint6_linear_405_198" x1="37.2909" y1="11.6139" x2="13.1647" y2="36.2437" gradientUnits="userSpaceOnUse">
<stop stop-color="#E741E7"/>
<stop offset="1" stop-color="#4100C8"/>
</linearGradient>
</defs>
</svg>
