<svg width="56" height="56" viewBox="0 0 56 56" fill="none" xmlns="http://www.w3.org/2000/svg">
<path d="M27.0489 6.92705C27.3483 6.00574 28.6517 6.00574 28.9511 6.92705L33.1638 19.8926C33.2977 20.3046 33.6817 20.5836 34.1149 20.5836H47.7477C48.7164 20.5836 49.1192 21.8232 48.3355 22.3926L37.3063 30.4058C36.9558 30.6604 36.8091 31.1118 36.943 31.5238L41.1558 44.4894C41.4551 45.4107 40.4007 46.1768 39.6169 45.6074L28.5878 37.5942C28.2373 37.3396 27.7627 37.3396 27.4122 37.5942L16.3831 45.6074C15.5993 46.1768 14.5449 45.4107 14.8442 44.4894L19.057 31.5238C19.1908 31.1118 19.0442 30.6604 18.6937 30.4058L7.66454 22.3926C6.88083 21.8232 7.2836 20.5836 8.25233 20.5836H21.8851C22.3183 20.5836 22.7023 20.3046 22.8362 19.8926L27.0489 6.92705Z" stroke="url(#paint0_linear_405_129)" stroke-width="2"/>
<defs>
<linearGradient id="paint0_linear_405_129" x1="48.2711" y1="1.62376" x2="8.28145" y2="53.582" gradientUnits="userSpaceOnUse">
<stop stop-color="#E741E7"/>
<stop offset="1" stop-color="#4100C8"/>
</linearGradient>
</defs>
</svg>
