<svg width="56" height="56" viewBox="0 0 56 56" fill="none" xmlns="http://www.w3.org/2000/svg">
<path d="M44.3327 11.8061C37.3702 10.9786 36.41 17.9101 35.2567 26.236C33.9855 35.4125 32.4797 46.2826 22.4443 50.3247M20.3651 24.6267C19.1312 35.4042 18.0422 44.9158 7.60382 38.6406M13.9078 22.6242C13.3463 30.6984 12.969 36.1243 5.01922 28.9493M28.2615 5.00146C33.9862 5.0652 39.2082 7.2196 43.2011 10.739C42.1536 10.744 41.2097 10.9308 40.362 11.3006C38.7519 12.0029 37.6428 13.2978 36.8468 14.8839C36.0574 16.4569 35.5436 18.3785 35.1442 20.4492C34.8049 22.2087 34.5383 24.1334 34.2653 26.1044C34.2166 26.4566 34.1676 26.8102 34.1179 27.1646C33.4563 31.8893 32.6683 36.8062 30.717 40.9533C28.826 44.9723 25.8558 48.2396 20.8053 49.8526C15.7103 48.1761 11.4002 44.766 8.57446 40.3203C9.91343 40.9934 11.1261 41.406 12.2294 41.567C14.2004 41.8546 15.8038 41.3327 17.0452 40.1487C18.2341 39.0148 19.0147 37.3463 19.5781 35.47C20.1462 33.5784 20.5263 31.3595 20.8407 29.0222C21.0313 27.6049 21.1983 26.1464 21.3665 24.6764C21.7608 21.2311 22.1623 17.7226 22.8934 14.5317C23.9144 10.0756 25.5036 6.63369 28.2615 5.00146ZM24.1141 50.6733C28.1926 48.6609 30.7987 45.4772 32.5267 41.8048C34.6247 37.3461 35.4408 32.1393 36.0986 27.442C36.1492 27.0805 36.1989 26.7223 36.248 26.3676C36.5214 24.3942 36.7796 22.5308 37.108 20.828C37.4961 18.816 37.9685 17.1077 38.6343 15.781C39.2935 14.4676 40.1086 13.5931 41.1616 13.1338C42.1712 12.6934 43.539 12.5737 45.454 13.0208C48.9116 17.0457 51 22.2778 51 28C51 40.7026 40.7026 51 28 51C26.6751 51 25.3768 50.8881 24.1141 50.6733ZM12.5182 39.588C11.0966 39.3805 9.23296 38.5885 6.80131 36.9388C5.93411 34.8848 5.3566 32.6781 5.12046 30.3691C6.17066 31.2648 7.10317 31.9442 7.93473 32.4193C9.1932 33.1385 10.3931 33.4884 11.4791 33.1842C12.6063 32.8685 13.2749 31.9492 13.6893 30.9411C14.1046 29.9312 14.3465 28.6435 14.5176 27.2414C14.6838 25.8798 14.7916 24.3302 14.9045 22.7067C14.9088 22.6443 14.9131 22.5817 14.9175 22.519C15.036 20.8166 15.1636 19.0238 15.3716 17.2136C15.776 13.6946 16.4761 10.2009 17.9374 7.31198C20.0981 6.25896 22.4487 5.5344 24.9249 5.20368C22.8982 7.4738 21.7232 10.684 20.944 14.085C20.1868 17.3897 19.7637 21.0839 19.3637 24.5768C19.1987 26.0179 19.0376 27.4246 18.8586 28.7556C18.5477 31.0666 18.1839 33.1588 17.6626 34.8947C17.1367 36.646 16.4826 37.9215 15.6648 38.7014C14.8995 39.4314 13.9243 39.7932 12.5182 39.588ZM8.92699 30.6828C7.91706 30.1058 6.632 29.1084 5.00386 27.5745C5.14415 19.8423 9.09988 13.0408 15.0709 8.97503C14.175 11.542 13.6915 14.3153 13.3847 16.9852C13.1708 18.8461 13.0406 20.6811 12.9223 22.3802L12.9112 22.5406C12.7966 24.1875 12.6921 25.6905 12.5324 26.999C12.366 28.3617 12.1486 29.4291 11.8396 30.1806C11.5298 30.934 11.2094 31.1828 10.9397 31.2583C10.6288 31.3454 10.024 31.3097 8.92699 30.6828Z" stroke="url(#paint0_linear_411_9)" stroke-width="2"/>
<defs>
<linearGradient id="paint0_linear_411_9" x1="48.2711" y1="1.62376" x2="8.28145" y2="53.582" gradientUnits="userSpaceOnUse">
<stop stop-color="#E741E7"/>
<stop offset="1" stop-color="#4100C8"/>
</linearGradient>
</defs>
</svg>
