<svg width="56" height="56" viewBox="0 0 56 56" fill="none" xmlns="http://www.w3.org/2000/svg">
<path d="M28 7.41253C27.4508 7.41253 26.964 7.56149 26.4741 7.7834C26.0142 7.99172 25.49 8.29443 24.8736 8.65034L24.8333 8.67357L12.8462 15.5944L12.8059 15.6176C12.1895 15.9735 11.6652 16.2762 11.2549 16.5703C10.8177 16.8835 10.4453 17.2307 10.1707 17.7063C9.89614 18.1819 9.78173 18.6779 9.72897 19.2132C9.67945 19.7156 9.67947 20.3209 9.67949 21.0327L9.67949 21.0792V34.9208L9.67949 34.9673C9.67947 35.6791 9.67945 36.2844 9.72897 36.7868C9.78173 37.3221 9.89614 37.8181 10.1707 38.2937C10.4453 38.7693 10.8177 39.1165 11.2549 39.4297C11.6652 39.7238 12.1895 40.0265 12.8059 40.3824L12.8462 40.4056L24.8333 47.3264L24.8734 47.3496C25.4899 47.7055 26.0142 48.0083 26.4741 48.2166C26.964 48.4385 27.4508 48.5875 28 48.5875C28.5492 48.5875 29.036 48.4385 29.5259 48.2166C29.9857 48.0083 30.51 47.7056 31.1263 47.3497L31.1667 47.3264L43.1538 40.4056L43.1941 40.3824C43.8105 40.0265 44.3348 39.7239 44.7451 39.4297C45.1823 39.1165 45.5547 38.7693 45.8293 38.2937C46.1039 37.8181 46.2183 37.3221 46.271 36.7868C46.3206 36.2844 46.3205 35.679 46.3205 34.9673V34.9208V21.0792V21.0327C46.3205 20.321 46.3206 19.7156 46.271 19.2132C46.2183 18.6779 46.1039 18.1819 45.8293 17.7063C45.5547 17.2307 45.1823 16.8835 44.7451 16.5703C44.3348 16.2761 43.8105 15.9735 43.1941 15.6176L43.1538 15.5944L31.1667 8.67358L31.1264 8.65034C30.51 8.29443 29.9858 7.99172 29.5259 7.7834C29.036 7.56149 28.5492 7.41253 28 7.41253Z" stroke="url(#paint0_linear_450_22)" stroke-width="2"/>
<g filter="url(#filter0_bd_450_22)">
<path d="M21.7778 31.2938V16.276C21.7778 15.2626 21.7778 14.7559 22.1075 14.5628C22.4372 14.3697 22.8792 14.6174 23.7632 15.113L31.9688 19.7131C33.6593 20.7098 34.2308 21.6286 34.2849 24.191V39.4327C34.2849 40.4791 34.2849 41.0023 33.9461 41.1936C33.6073 41.385 33.1592 41.1148 32.2631 40.5745L23.7851 35.4628C22.128 34.4258 21.8123 33.4302 21.7778 31.2938Z" stroke="url(#paint1_linear_450_22)" stroke-width="2" shape-rendering="crispEdges"/>
</g>
<defs>
<filter id="filter0_bd_450_22" x="16.7778" y="9.83028" width="22.5071" height="36.7584" filterUnits="userSpaceOnUse" color-interpolation-filters="sRGB">
<feFlood flood-opacity="0" result="BackgroundImageFix"/>
<feGaussianBlur in="BackgroundImageFix" stdDeviation="0.666667"/>
<feComposite in2="SourceAlpha" operator="in" result="effect1_backgroundBlur_450_22"/>
<feColorMatrix in="SourceAlpha" type="matrix" values="0 0 0 0 0 0 0 0 0 0 0 0 0 0 0 0 0 0 127 0" result="hardAlpha"/>
<feOffset dy="0.333333"/>
<feGaussianBlur stdDeviation="2"/>
<feComposite in2="hardAlpha" operator="out"/>
<feColorMatrix type="matrix" values="0 0 0 0 0.22973 0 0 0 0 0.0388507 0 0 0 0 0.279167 0 0 0 0.6 0"/>
<feBlend mode="normal" in2="effect1_backgroundBlur_450_22" result="effect2_dropShadow_450_22"/>
<feBlend mode="normal" in="SourceGraphic" in2="effect2_dropShadow_450_22" result="shape"/>
</filter>
<linearGradient id="paint0_linear_450_22" x1="44.8926" y1="6.0198" x2="11.5679" y2="49.3183" gradientUnits="userSpaceOnUse">
<stop stop-color="#E741E7"/>
<stop offset="1" stop-color="#4100C8"/>
</linearGradient>
<linearGradient id="paint1_linear_450_22" x1="33.3133" y1="12.6241" x2="12.4389" y2="24.8289" gradientUnits="userSpaceOnUse">
<stop stop-color="#E741E7"/>
<stop offset="1" stop-color="#4100C8"/>
</linearGradient>
</defs>
</svg>
