<svg width="56" height="56" viewBox="0 0 56 56" fill="none" xmlns="http://www.w3.org/2000/svg">
<circle cx="27.5139" cy="34.1478" r="5.78125" stroke="url(#paint0_linear_526_15)" stroke-width="2"/>
<path d="M18.5 17.5C14.8821 23.1938 13 28.3125 13 33.5C13 41.5 18.5 48 28 48.5C36.5 48.5 42 42 42 34C42 28.5 41.5 23 39.5 19C39 21.5 38.5 22.8333 37 22.5C35 22.0556 37 18.5 33.5 14C33.5 15.5 33.25 17.5 31 17.5C28 17.5 26.5 13 29 8C24 10.5 23.0714 16.5 22 19C21 21.3333 18.5 21 18.5 17.5Z" stroke="url(#paint1_linear_526_15)" stroke-width="2"/>
<defs>
<linearGradient id="paint0_linear_526_15" x1="33.2416" y1="26.6952" x2="21.9424" y2="41.3761" gradientUnits="userSpaceOnUse">
<stop stop-color="#E741E7"/>
<stop offset="1" stop-color="#6926F6"/>
</linearGradient>
<linearGradient id="paint1_linear_526_15" x1="39.7471" y1="5.99505" x2="4.93351" y2="38.3841" gradientUnits="userSpaceOnUse">
<stop stop-color="#E741E7"/>
<stop offset="1" stop-color="#6926F6"/>
</linearGradient>
</defs>
</svg>
