<svg width="56" height="56" viewBox="0 0 56 56" fill="none" xmlns="http://www.w3.org/2000/svg">
<g id="logo-axlepush-motion">
<path id="Polygon 11" class="loader-1" d="M32.1944 5.99901L44.9562 13.367C46.0491 13.998 46.8374 14.4538 47.4295 14.8781C48.0126 15.2961 48.3724 15.6612 48.6222 16.0938C48.8719 16.5263 49.0082 17.0205 49.0786 17.7345C49.1501 18.4594 49.1506 19.37 49.1506 20.632V35.368C49.1506 36.63 49.1501 37.5406 49.0786 38.2655C49.0082 38.9795 48.8719 39.4737 48.6222 39.9062C48.3724 40.3388 48.0126 40.7039 47.4295 41.1219C46.8374 41.5462 46.0491 42.002 44.9562 42.633L32.1944 50.001C31.1015 50.632 30.3126 51.0868 29.6491 51.3874C28.9956 51.6834 28.4995 51.8124 28 51.8124C27.5005 51.8124 27.0044 51.6834 26.3509 51.3874C25.6874 51.0868 24.8985 50.632 23.8056 50.001L11.0438 42.633C9.95087 42.002 9.16256 41.5462 8.57048 41.1219C7.98735 40.7039 7.62756 40.3388 7.37782 39.9062C7.12808 39.4737 6.99176 38.9795 6.92138 38.2655C6.84992 37.5406 6.84937 36.63 6.84937 35.368V20.632C6.84937 19.37 6.84992 18.4594 6.92138 17.7345C6.99176 17.0205 7.12808 16.5263 7.37782 16.0938C7.62756 15.6612 7.98735 15.2961 8.57048 14.8781C9.16256 14.4538 9.95087 13.998 11.0438 13.367L23.8056 5.99901C24.8985 5.368 25.6874 4.91319 26.3509 4.61262C27.0044 4.31658 27.5005 4.18756 28 4.18756C28.4995 4.18756 28.9956 4.31658 29.6491 4.61262C30.3126 4.91319 31.1015 5.368 32.1944 5.99901Z" fill="url(#paint0_linear_1127_4)" stroke="#CF3AF0"/>
<g id="Vector 2078" filter="url(#filter0_bd_1127_4)">
<path class="loader-2" d="M20.2222 32.1171V14.2933C20.2222 12.6043 20.2222 11.7598 20.7716 11.4379C21.3211 11.116 22.0578 11.5289 23.5311 12.3549L32.9609 17.6413C35.074 18.8872 35.7884 20.0357 35.856 23.2386V41.3071C35.856 43.051 35.856 43.923 35.2913 44.2419C34.7266 44.5609 33.9799 44.1106 32.4864 43.2101L22.7313 37.3284C20.6599 36.0322 20.2652 34.7876 20.2222 32.1171Z" fill="url(#paint1_linear_1127_4)" shape-rendering="crispEdges"/>
<path class="loader-2" d="M20.2222 32.1171V14.2933C20.2222 12.6043 20.2222 11.7598 20.7716 11.4379C21.3211 11.116 22.0578 11.5289 23.5311 12.3549L32.9609 17.6413C35.074 18.8872 35.7884 20.0357 35.856 23.2386V41.3071C35.856 43.051 35.856 43.923 35.2913 44.2419C34.7266 44.5609 33.9799 44.1106 32.4864 43.2101L22.7313 37.3284C20.6599 36.0322 20.2652 34.7876 20.2222 32.1171Z" stroke="#FDF3FF" shape-rendering="crispEdges"/>
</g>
</g>
<defs>
<filter id="filter0_bd_1127_4" x="13.0555" y="4.71726" width="29.9674" height="47.3493" filterUnits="userSpaceOnUse" color-interpolation-filters="sRGB">
<feFlood flood-opacity="0" result="BackgroundImageFix"/>
<feGaussianBlur in="BackgroundImageFix" stdDeviation="1.11111"/>
<feComposite in2="SourceAlpha" operator="in" result="effect1_backgroundBlur_1127_4"/>
<feColorMatrix in="SourceAlpha" type="matrix" values="0 0 0 0 0 0 0 0 0 0 0 0 0 0 0 0 0 0 127 0" result="hardAlpha"/>
<feOffset dy="0.555556"/>
<feGaussianBlur stdDeviation="3.33333"/>
<feComposite in2="hardAlpha" operator="out"/>
<feColorMatrix type="matrix" values="0 0 0 0 0.22973 0 0 0 0 0.0388507 0 0 0 0 0.279167 0 0 0 0.6 0"/>
<feBlend mode="normal" in2="effect1_backgroundBlur_1127_4" result="effect2_dropShadow_1127_4"/>
<feBlend mode="normal" in="SourceGraphic" in2="effect2_dropShadow_1127_4" result="shape"/>
</filter>
<linearGradient id="paint0_linear_1127_4" x1="49.1157" y1="0.524752" x2="7.45985" y2="54.6479" gradientUnits="userSpaceOnUse">
<stop stop-color="#E741E7"/>
<stop offset="1" stop-color="#4100C8"/>
</linearGradient>
<linearGradient id="paint1_linear_1127_4" x1="28.0105" y1="14.9248" x2="28.0105" y2="40.897" gradientUnits="userSpaceOnUse">
<stop stop-color="#F6D7FF"/>
<stop offset="1" stop-color="#F6D7FF" stop-opacity="0.5"/>
</linearGradient>
</defs>
</svg>
