<svg width="56" height="56" viewBox="0 0 56 56" fill="none" xmlns="http://www.w3.org/2000/svg">
<path d="M23.625 5.68628C24.7119 5.05878 25.5184 4.59329 26.2019 4.28368C26.8826 3.97534 27.4312 3.82645 28 3.82645C28.5688 3.82645 29.1174 3.97534 29.7981 4.28368C30.4816 4.59329 31.2881 5.05878 32.375 5.68628L45.1367 13.0543C46.2236 13.6818 47.03 14.1475 47.6399 14.5846C48.2472 15.0199 48.6505 15.4206 48.9349 15.9132C49.2193 16.4058 49.3647 16.9554 49.438 17.699C49.5116 18.4457 49.5117 19.377 49.5117 20.632V35.368C49.5117 36.623 49.5116 37.5543 49.438 38.301C49.3647 39.0446 49.2193 39.5942 48.9349 40.0868C48.6505 40.5794 48.2472 40.9801 47.6399 41.4154C47.03 41.8525 46.2236 42.3182 45.1367 42.9457L32.375 50.3137C31.2881 50.9412 30.4816 51.4067 29.7981 51.7163C29.1174 52.0247 28.5688 52.1736 28 52.1736C27.4312 52.1736 26.8826 52.0247 26.2019 51.7163C25.5184 51.4067 24.7119 50.9412 23.625 50.3137L10.8633 42.9457C9.7764 42.3182 8.96997 41.8525 8.36012 41.4154C7.75275 40.9801 7.34948 40.5794 7.06509 40.0868C6.7807 39.5942 6.63532 39.0446 6.56201 38.301C6.48841 37.5543 6.48825 36.623 6.48825 35.368V20.632C6.48825 19.377 6.48841 18.4457 6.56201 17.699C6.63532 16.9554 6.7807 16.4058 7.06509 15.9132C7.34948 15.4206 7.75275 15.0199 8.36012 14.5846C8.96997 14.1475 9.7764 13.6818 10.8633 13.0543L23.625 5.68628Z" fill="url(#paint0_linear_450_13)" stroke="#CF3AF0" stroke-width="0.277778"/>
<g filter="url(#filter0_bd_450_13)">
<path d="M20.2222 32.1171V14.2933C20.2222 12.6043 20.2222 11.7598 20.7716 11.4379C21.3211 11.116 22.0578 11.5289 23.5311 12.3549L32.9609 17.6413C35.074 18.8872 35.7884 20.0357 35.856 23.2386V41.3071C35.856 43.051 35.856 43.923 35.2913 44.2419C34.7266 44.5609 33.9799 44.1106 32.4864 43.2101L22.7313 37.3284C20.6599 36.0322 20.2652 34.7876 20.2222 32.1171Z" fill="url(#paint1_linear_450_13)" shape-rendering="crispEdges"/>
<path d="M20.2222 32.1171V14.2933C20.2222 12.6043 20.2222 11.7598 20.7716 11.4379C21.3211 11.116 22.0578 11.5289 23.5311 12.3549L32.9609 17.6413C35.074 18.8872 35.7884 20.0357 35.856 23.2386V41.3071C35.856 43.051 35.856 43.923 35.2913 44.2419C34.7266 44.5609 33.9799 44.1106 32.4864 43.2101L22.7313 37.3284C20.6599 36.0322 20.2652 34.7876 20.2222 32.1171Z" stroke="#FDF3FF" stroke-width="0.277778" shape-rendering="crispEdges"/>
</g>
<defs>
<filter id="filter0_bd_450_13" x="13.4166" y="5.07843" width="29.245" height="46.6269" filterUnits="userSpaceOnUse" color-interpolation-filters="sRGB">
<feFlood flood-opacity="0" result="BackgroundImageFix"/>
<feGaussianBlur in="BackgroundImageFix" stdDeviation="1.11111"/>
<feComposite in2="SourceAlpha" operator="in" result="effect1_backgroundBlur_450_13"/>
<feColorMatrix in="SourceAlpha" type="matrix" values="0 0 0 0 0 0 0 0 0 0 0 0 0 0 0 0 0 0 127 0" result="hardAlpha"/>
<feOffset dy="0.555556"/>
<feGaussianBlur stdDeviation="3.33333"/>
<feComposite in2="hardAlpha" operator="out"/>
<feColorMatrix type="matrix" values="0 0 0 0 0.22973 0 0 0 0 0.0388507 0 0 0 0 0.279167 0 0 0 0.6 0"/>
<feBlend mode="normal" in2="effect1_backgroundBlur_450_13" result="effect2_dropShadow_450_13"/>
<feBlend mode="normal" in="SourceGraphic" in2="effect2_dropShadow_450_13" result="shape"/>
</filter>
<linearGradient id="paint0_linear_450_13" x1="49.1157" y1="0.524752" x2="7.45985" y2="54.6479" gradientUnits="userSpaceOnUse">
<stop stop-color="#E741E7"/>
<stop offset="1" stop-color="#4100C8"/>
</linearGradient>
<linearGradient id="paint1_linear_450_13" x1="28.0105" y1="14.9248" x2="28.0105" y2="40.897" gradientUnits="userSpaceOnUse">
<stop stop-color="#F6D7FF"/>
<stop offset="1" stop-color="#F6D7FF" stop-opacity="0.5"/>
</linearGradient>
</defs>
</svg>
